<svg width="31" height="33" viewBox="0 0 31 33" fill="none" xmlns="http://www.w3.org/2000/svg">
<path d="M30.324 25.676C30.324 28.076 29.544 29.888 27.984 31.112C26.424 32.312 24.336 32.912 21.72 32.912H9.156C6.492 32.912 4.404 32.324 2.892 31.148C1.356 29.948 0.587999 28.124 0.587999 25.676C0.587999 23.252 1.356 21.452 2.892 20.276C4.404 19.076 6.492 18.476 9.156 18.476H21.72C24.36 18.476 26.46 19.076 28.02 20.276C29.556 21.476 30.324 23.276 30.324 25.676ZM27.156 25.676C27.156 23.468 25.356 22.364 21.756 22.364L9.12 22.364C7.464 22.364 6.156 22.604 5.196 23.084C4.212 23.54 3.72 24.404 3.72 25.676C3.72 26.948 4.212 27.824 5.196 28.304C6.156 28.784 7.464 29.024 9.12 29.024L21.756 29.024C25.356 29.024 27.156 27.908 27.156 25.676ZM27.264 14.9263L15.708 7.51034C15.132 7.15034 14.772 6.91034 14.628 6.79034C13.284 5.95034 12.168 5.33834 11.28 4.95434C10.392 4.57034 9.324 4.37834 8.076 4.37834C6.684 4.37834 5.616 4.60634 4.872 5.06234C4.128 5.51834 3.756 6.26234 3.756 7.29434C3.756 9.59834 5.544 10.7503 9.12 10.7503H10.092V14.6023H9.084C6.348 14.6023 4.248 14.0383 2.784 12.9103C1.32 11.7823 0.587999 9.97034 0.587999 7.47434C0.587999 5.17034 1.248 3.43034 2.568 2.25434C3.864 1.07834 5.712 0.490343 8.112 0.490343C9.288 0.490343 10.344 0.634343 11.28 0.922343C12.192 1.18634 12.984 1.51034 13.656 1.89434C14.328 2.27834 15.288 2.87834 16.536 3.69434L26.76 10.3903V1.17434H30V14.9263H27.264Z" fill="#C4C4C4"/>
</svg>
